Coordinates
version=1
nRows=81
nColumns=19
inDegrees=yes

Units are S.I. units (second, meters, Newtons, ...)
Angles are in degrees.

endheader
time	ground_force_vx	ground_force_vy	ground_force_vz	ground_force_px	ground_force_py	ground_force_pz	1_ground_force_vx	1_ground_force_vy	1_ground_force_vz	1_ground_force_px	1_ground_force_py	1_ground_force_pz	ground_torque_x	ground_torque_y	ground_torque_z	1_ground_torque_x	1_ground_torque_y	1_ground_torque_z
0.0075	13.809	-1.436	-4.565	-0.237	0.000	0.403	-3.774	3.605	-2.715	-0.215	0.000	0.248	0.00000	5.43265	0.00000	0.00000	7.40736	0.00000
0.0100	13.893	-0.047	-4.479	-0.213	0.000	0.363	-3.906	2.918	-2.717	-0.212	0.000	0.249	0.00000	239.11720	0.00000	0.00000	8.60857	0.00000
0.0125	13.987	-0.914	-4.258	-0.234	0.000	0.393	-3.821	3.777	-2.364	-0.214	0.000	0.249	0.00000	10.11843	0.00000	0.00000	7.91548	0.00000
0.0150	13.853	-0.740	-4.213	-0.220	0.000	0.393	-3.823	2.919	-2.235	-0.213	0.000	0.251	0.00000	11.81677	0.00000	0.00000	9.57639	0.00000
0.0175	13.938	-0.747	-4.480	-0.220	0.000	0.367	-3.647	2.234	-2.147	-0.214	0.000	0.252	0.00000	15.02578	0.00000	0.00000	11.15417	0.00000
0.0200	14.028	-1.786	-4.477	-0.223	0.000	0.406	-3.602	2.062	-2.324	-0.212	0.000	0.251	0.00000	4.00120	0.00000	0.00000	10.85106	0.00000
0.0225	13.850	-0.223	-4.567	-0.212	0.000	0.383	-3.777	3.949	-2.450	-0.215	0.000	0.250	0.00000	41.16829	0.00000	0.00000	7.62047	0.00000
0.0250	13.938	-0.745	-4.655	-0.220	0.000	0.390	-3.908	3.090	-2.454	-0.213	0.000	0.250	0.00000	11.70460	0.00000	0.00000	8.91616	0.00000
0.0275	13.719	-0.046	-4.567	-0.215	0.000	0.390	-3.818	5.153	-2.579	-0.217	0.000	0.246	0.00000	184.91553	0.00000	0.00000	6.55901	0.00000
0.0300	13.766	-0.913	-4.300	-0.226	0.000	0.404	-3.950	3.776	-2.715	-0.214	0.000	0.249	0.00000	8.26922	0.00000	0.00000	7.59794	0.00000
0.0325	13.762	-1.263	-4.653	-0.222	0.000	0.399	-3.820	2.748	-2.543	-0.212	0.000	0.249	0.00000	5.99478	0.00000	0.00000	9.00629	0.00000
0.0350	13.760	-0.224	-4.611	-0.202	0.000	0.376	-3.773	4.291	-2.711	-0.218	0.000	0.248	0.00000	41.95424	0.00000	0.00000	6.96228	0.00000
0.0375	13.937	-0.750	-4.569	-0.208	0.000	0.366	-3.559	2.750	-2.190	-0.215	0.000	0.250	0.00000	14.38591	0.00000	0.00000	9.36917	0.00000
0.0400	14.159	-2.830	-4.520	-0.230	0.000	0.407	-3.562	3.265	-1.883	-0.214	0.000	0.250	0.00000	2.48899	0.00000	0.00000	8.99049	0.00000
0.0425	13.675	-1.614	-4.566	-0.232	0.000	0.376	-3.736	1.548	-1.930	-0.212	0.000	0.255	0.00000	6.46886	0.00000	0.00000	16.09533	0.00000
0.0450	13.937	0.125	-4.568	-0.207	0.000	0.372	-3.863	3.604	-2.584	-0.214	0.000	0.249	0.00000	-81.46816	0.00000	0.00000	7.83676	0.00000
0.0475	13.761	-0.568	-4.742	-0.218	0.000	0.396	-3.862	2.918	-2.671	-0.213	0.000	0.253	0.00000	13.94727	0.00000	0.00000	8.87733	0.00000
0.0500	13.587	-0.740	-4.653	-0.227	0.000	0.396	-3.865	3.259	-2.453	-0.213	0.000	0.250	0.00000	10.83024	0.00000	0.00000	8.52216	0.00000
0.0525	13.850	-0.741	-4.609	-0.218	0.000	0.403	-3.864	3.262	-2.407	-0.215	0.000	0.252	0.00000	9.95201	0.00000	0.00000	8.87721	0.00000
0.0550	13.983	-0.919	-4.612	-0.225	0.000	0.382	-3.907	3.089	-2.584	-0.214	0.000	0.251	0.00000	10.68754	0.00000	0.00000	8.77569	0.00000
0.0575	14.114	-1.445	-4.656	-0.216	0.000	0.391	-3.472	2.233	-2.191	-0.214	0.000	0.250	0.00000	5.88614	0.00000	0.00000	10.24342	0.00000
0.0600	13.983	-1.963	-4.565	-0.220	0.000	0.402	-3.516	2.577	-2.190	-0.214	0.000	0.251	0.00000	3.65290	0.00000	0.00000	9.59322	0.00000
0.0625	14.112	-1.098	-4.701	-0.215	0.000	0.373	-3.734	2.923	-2.103	-0.215	0.000	0.250	0.00000	9.54906	0.00000	0.00000	9.70535	0.00000
0.0650	14.246	-1.964	-4.478	-0.220	0.000	0.395	-4.042	2.236	-1.932	-0.213	0.000	0.251	0.00000	4.33089	0.00000	0.00000	13.11034	0.00000
0.0675	13.937	-1.098	-4.569	-0.214	0.000	0.368	-3.865	2.063	-2.236	-0.213	0.000	0.253	0.00000	9.88432	0.00000	0.00000	12.43389	0.00000
0.0700	13.763	-0.915	-4.521	-0.217	0.000	0.406	-3.864	3.086	-2.672	-0.214	0.000	0.251	0.00000	7.52182	0.00000	0.00000	8.39157	0.00000
0.0725	13.675	-1.087	-4.476	-0.222	0.000	0.400	-3.951	2.916	-2.673	-0.213	0.000	0.251	0.00000	6.98073	0.00000	0.00000	8.97861	0.00000
0.0750	14.022	-1.100	-4.790	-0.209	0.000	0.364	-3.824	2.406	-1.886	-0.215	0.000	0.251	0.00000	10.04347	0.00000	0.00000	11.93198	0.00000
0.0775	13.849	-1.092	-4.522	-0.214	0.000	0.386	-3.735	2.235	-2.105	-0.213	0.000	0.250	0.00000	8.23189	0.00000	0.00000	11.42875	0.00000
0.0800	13.718	0.302	-4.390	-0.208	0.000	0.369	-3.733	2.746	-2.455	-0.214	0.000	0.249	0.00000	-34.19567	0.00000	0.00000	9.07099	0.00000
0.0825	13.765	-1.781	-4.475	-0.237	0.000	0.406	-3.865	3.263	-2.365	-0.212	0.000	0.251	0.00000	4.17589	0.00000	0.00000	8.77116	0.00000
0.0850	13.456	-0.912	-4.609	-0.237	0.000	0.388	-3.689	3.949	-2.450	-0.215	0.000	0.249	0.00000	9.96981	0.00000	0.00000	7.36329	0.00000
0.0875	13.497	-0.738	-4.476	-0.223	0.000	0.370	-3.646	3.260	-2.538	-0.214	0.000	0.251	0.00000	14.29870	0.00000	0.00000	7.96621	0.00000
0.0900	13.455	-0.561	-4.254	-0.218	0.000	0.392	-4.039	2.918	-2.453	-0.213	0.000	0.253	0.00000	14.89710	0.00000	0.00000	9.89070	0.00000
0.0925	13.898	-2.302	-4.298	-0.239	0.000	0.406	-3.690	3.095	-2.102	-0.214	0.000	0.250	0.00000	3.30797	0.00000	0.00000	9.27232	0.00000
0.0950	13.852	-1.956	-4.211	-0.229	0.000	0.391	-3.473	1.718	-2.236	-0.213	0.000	0.251	0.00000	4.67941	0.00000	0.00000	12.02979	0.00000
0.0975	13.765	-0.737	-4.167	-0.223	0.000	0.396	-3.776	3.604	-2.539	-0.215	0.000	0.249	0.00000	11.49797	0.00000	0.00000	7.79064	0.00000
0.1000	13.500	0.305	-4.389	-0.218	0.000	0.376	-3.952	2.402	-2.543	-0.212	0.000	0.251	0.00000	-32.19011	0.00000	0.00000	10.41289	0.00000
0.1025	13.633	-1.255	-4.296	-0.225	0.000	0.418	-3.908	3.606	-2.364	-0.214	0.000	0.250	0.00000	4.66630	0.00000	0.00000	8.45475	0.00000
0.1050	13.808	-0.912	-4.299	-0.216	0.000	0.404	-3.951	3.778	-2.451	-0.214	0.000	0.250	0.00000	8.01028	0.00000	0.00000	8.21179	0.00000
0.1075	13.545	-1.256	-4.342	-0.237	0.000	0.396	-3.821	2.917	-2.453	-0.214	0.000	0.251	0.00000	6.82423	0.00000	0.00000	9.13859	0.00000
0.1100	13.678	-1.603	-4.208	-0.229	0.000	0.418	-3.689	2.919	-2.453	-0.213	0.000	0.251	0.00000	3.72906	0.00000	0.00000	8.74703	0.00000
0.1125	13.940	-2.306	-4.299	-0.227	0.000	0.401	-3.867	2.921	-2.060	-0.214	0.000	0.250	0.00000	3.37458	0.00000	0.00000	10.10570	0.00000
0.1150	13.763	-1.610	-4.123	-0.218	0.000	0.386	-3.649	2.235	-1.974	-0.214	0.000	0.250	0.00000	5.80702	0.00000	0.00000	11.47326	0.00000
0.1175	13.544	-0.735	-4.166	-0.217	0.000	0.396	-3.777	3.604	-2.539	-0.214	0.000	0.250	0.00000	11.03470	0.00000	0.00000	7.74693	0.00000
0.1200	13.855	-0.739	-3.948	-0.223	0.000	0.385	-3.864	2.745	-2.453	-0.214	0.000	0.252	0.00000	13.24494	0.00000	0.00000	9.67216	0.00000
0.1225	13.411	-1.084	-4.253	-0.217	0.000	0.399	-3.820	3.260	-2.627	-0.214	0.000	0.250	0.00000	6.93598	0.00000	0.00000	8.17375	0.00000
0.1250	13.676	-0.042	-4.522	-0.233	0.000	0.380	-3.862	3.432	-2.713	-0.215	0.000	0.252	0.00000	236.66941	0.00000	0.00000	8.04208	0.00000
0.1275	13.587	-0.562	-4.387	-0.227	0.000	0.388	-3.995	2.575	-2.499	-0.213	0.000	0.251	0.00000	16.05589	0.00000	0.00000	10.22771	0.00000
0.1300	13.500	-1.079	-4.340	-0.234	0.000	0.401	-3.864	4.294	-2.363	-0.217	0.000	0.248	0.00000	7.36317	0.00000	0.00000	7.57083	0.00000
0.1325	13.849	-1.263	-4.212	-0.215	0.000	0.376	-3.472	2.062	-2.234	-0.214	0.000	0.252	0.00000	8.20084	0.00000	0.00000	10.84072	0.00000
0.1350	13.852	-1.783	-4.123	-0.226	0.000	0.384	-3.561	1.891	-2.062	-0.212	0.000	0.251	0.00000	5.64306	0.00000	0.00000	12.20033	0.00000
0.1375	13.586	-1.612	-4.344	-0.217	0.000	0.382	-3.607	2.409	-1.710	-0.213	0.000	0.251	0.00000	5.76946	0.00000	0.00000	11.57838	0.00000
0.1400	13.543	-2.125	-4.296	-0.234	0.000	0.394	-3.647	2.234	-2.191	-0.214	0.000	0.252	0.00000	4.11135	0.00000	0.00000	11.01645	0.00000
0.1425	13.892	-0.744	-4.390	-0.208	0.000	0.374	-3.734	2.920	-2.191	-0.216	0.000	0.249	0.00000	13.76582	0.00000	0.00000	9.40082	0.00000
0.1450	13.544	-0.907	-4.165	-0.225	0.000	0.396	-3.821	2.916	-2.496	-0.214	0.000	0.252	0.00000	9.15957	0.00000	0.00000	9.06508	0.00000
0.1475	13.455	-0.037	-4.077	-0.208	0.000	0.390	-3.865	3.776	-2.452	-0.215	0.000	0.248	0.00000	230.13356	0.00000	0.00000	7.84156	0.00000
0.1500	13.454	-0.385	-4.297	-0.217	0.000	0.392	-3.821	3.261	-2.453	-0.213	0.000	0.250	0.00000	21.81248	0.00000	0.00000	8.45734	0.00000
0.1525	13.806	-1.954	-4.077	-0.225	0.000	0.387	-3.388	2.578	-1.839	-0.215	0.000	0.251	0.00000	4.97441	0.00000	0.00000	10.04588	0.00000
0.1550	13.590	-2.296	-3.898	-0.234	0.000	0.401	-3.691	2.061	-2.191	-0.213	0.000	0.254	0.00000	3.60675	0.00000	0.00000	11.94117	0.00000
0.1575	13.720	-1.954	-3.944	-0.221	0.000	0.390	-3.516	2.407	-2.059	-0.214	0.000	0.251	0.00000	4.69077	0.00000	0.00000	10.41182	0.00000
0.1600	13.808	-1.779	-4.166	-0.233	0.000	0.389	-3.518	2.235	-1.885	-0.213	0.000	0.252	0.00000	5.42697	0.00000	0.00000	11.36344	0.00000
0.1625	13.853	-1.086	-3.903	-0.221	0.000	0.381	-3.604	3.266	-1.970	-0.215	0.000	0.250	0.00000	9.51893	0.00000	0.00000	9.02875	0.00000
0.1650	13.456	-0.728	-4.075	-0.227	0.000	0.403	-4.082	3.090	-2.453	-0.214	0.000	0.251	0.00000	10.71201	0.00000	0.00000	9.60664	0.00000
0.1675	13.765	-0.389	-3.947	-0.218	0.000	0.381	-3.993	3.777	-2.671	-0.213	0.000	0.249	0.00000	25.59500	0.00000	0.00000	7.82806	0.00000
0.1700	13.852	-1.781	-3.902	-0.222	0.000	0.382	-3.606	2.236	-1.799	-0.213	0.000	0.250	0.00000	5.79323	0.00000	0.00000	11.82681	0.00000
0.1725	13.762	-1.432	-3.901	-0.209	0.000	0.384	-3.472	2.751	-2.102	-0.215	0.000	0.249	0.00000	6.69367	0.00000	0.00000	9.24767	0.00000
0.1750	14.066	-0.746	-4.125	-0.186	0.000	0.363	-3.779	1.720	-1.975	-0.213	0.000	0.252	0.00000	14.87811	0.00000	0.00000	14.60246	0.00000
0.1775	13.411	-1.253	-4.075	-0.219	0.000	0.403	-3.690	3.606	-2.409	-0.214	0.000	0.248	0.00000	5.88797	0.00000	0.00000	7.64737	0.00000
0.1800	13.588	-1.955	-4.122	-0.230	0.000	0.384	-3.603	2.921	-2.191	-0.215	0.000	0.249	0.00000	5.02098	0.00000	0.00000	9.02926	0.00000
0.1825	13.371	0.138	-3.769	-0.222	0.000	0.374	-3.864	3.605	-2.452	-0.215	0.000	0.249	0.00000	-75.59063	0.00000	0.00000	8.12627	0.00000
0.1850	13.677	-0.903	-4.031	-0.231	0.000	0.406	-4.126	3.261	-2.498	-0.214	0.000	0.250	0.00000	8.61757	0.00000	0.00000	9.17231	0.00000
0.1875	13.635	-2.644	-3.809	-0.232	0.000	0.409	-3.558	2.748	-2.408	-0.214	0.000	0.251	0.00000	2.75361	0.00000	0.00000	8.86080	0.00000
0.1900	13.453	-0.735	-3.900	-0.196	0.000	0.386	-3.516	2.407	-2.105	-0.214	0.000	0.249	0.00000	11.83709	0.00000	0.00000	10.04244	0.00000
0.1925	13.281	-1.076	-3.810	-0.224	0.000	0.393	-3.821	3.262	-2.453	-0.213	0.000	0.250	0.00000	8.08343	0.00000	0.00000	8.41269	0.00000
0.1950	13.457	-0.206	-3.855	-0.219	0.000	0.395	-3.688	3.262	-2.539	-0.214	0.000	0.250	0.00000	41.52989	0.00000	0.00000	8.07798	0.00000
0.1975	13.451	-0.040	-4.254	-0.200	0.000	0.368	-3.864	3.263	-2.321	-0.215	0.000	0.250	0.00000	252.04321	0.00000	0.00000	8.94631	0.00000
0.2000	13.367	-0.211	-4.033	-0.215	0.000	0.384	-3.819	2.744	-2.674	-0.213	0.000	0.250	0.00000	43.77912	0.00000	0.00000	8.79895	0.00000
0.2025	13.281	-0.555	-3.943	-0.219	0.000	0.400	-3.953	3.264	-2.235	-0.213	0.000	0.249	0.00000	13.88590	0.00000	0.00000	9.18678	0.00000
0.2050	13.674	-1.079	-4.296	-0.224	0.000	0.404	-3.951	2.744	-2.673	-0.212	0.000	0.252	0.00000	6.95178	0.00000	0.00000	9.33784	0.00000
0.2075	13.764	-1.955	-3.856	-0.217	0.000	0.388	-3.602	2.921	-2.232	-0.215	0.000	0.252	0.00000	4.81266	0.00000	0.00000	9.19058	0.00000
